<?xml version="1.0" encoding="UTF-8" standalone="no"?>
<!DOCTYPE svg PUBLIC "-//W3C//DTD SVG 1.1//EN"
 "http://www.w3.org/Graphics/SVG/1.1/DTD/svg11.dtd">
<!-- Generated by graphviz version 2.43.0 (0)
 -->
<!-- Title: EC2Architecture Pages: 1 -->
<svg width="551pt" height="620pt"
 viewBox="0.00 0.00 551.00 620.00" xmlns="http://www.w3.org/2000/svg" xmlns:xlink="http://www.w3.org/1999/xlink">
<g id="graph0" class="graph" transform="scale(1 1) rotate(0) translate(36 584)">
<title>EC2Architecture</title>
<polygon fill="white" stroke="transparent" points="-36,36 -36,-584 515,-584 515,36 -36,36"/>
<text text-anchor="start" x="135.5" y="-529.3" font-family="Helvetica,sans-Serif" font-weight="bold" font-size="14.00">EC2 Compute Architecture</text>
<text text-anchor="start" x="122.5" y="-509.3" font-family="Helvetica,sans-Serif" font-size="9.00" fill="#888888">Instance fleets, types, placement, and connectivity</text>
<!-- web_servers_a -->
<g id="node1" class="node">
<title>web_servers_a</title>
<path fill="white" stroke="black" d="M206,-404C206,-404 12,-404 12,-404 6,-404 0,-398 0,-392 0,-392 0,-299 0,-299 0,-293 6,-287 12,-287 12,-287 206,-287 206,-287 212,-287 218,-293 218,-299 218,-299 218,-392 218,-392 218,-398 212,-404 206,-404"/>
<text text-anchor="start" x="69.5" y="-387.7" font-family="Helvetica,sans-Serif" font-weight="bold" font-size="11.00">Web Servers</text>
<text text-anchor="start" x="72.5" y="-371.1" font-family="Helvetica,sans-Serif" font-size="8.00" fill="#555555">10.0.0.10–12 (×3)</text>
<text text-anchor="start" x="80" y="-356.9" font-family="Helvetica,sans-Serif" font-size="7.00" fill="#888888">nginx + node.js</text>
<text text-anchor="start" x="12" y="-342.1" font-family="Helvetica,sans-Serif" font-size="8.00" fill="#888888">Instance Type</text>
<text text-anchor="start" x="75" y="-342.1" font-family="Helvetica,sans-Serif" font-size="8.00">t3.medium</text>
<text text-anchor="start" x="12" y="-327.1" font-family="Helvetica,sans-Serif" font-size="8.00" fill="#888888">Count</text>
<text text-anchor="start" x="75" y="-327.1" font-family="Helvetica,sans-Serif" font-size="8.00">3</text>
<text text-anchor="start" x="12" y="-312.1" font-family="Helvetica,sans-Serif" font-size="8.00" fill="#888888">VPC</text>
<text text-anchor="start" x="75" y="-312.1" font-family="Helvetica,sans-Serif" font-size="8.00">VPC&#45;A</text>
<text text-anchor="start" x="12" y="-297.1" font-family="Helvetica,sans-Serif" font-size="8.00" fill="#888888">Subnet</text>
<text text-anchor="start" x="75" y="-297.1" font-family="Helvetica,sans-Serif" font-size="8.00">Subnet 10.0.0.0/24 (us&#45;east&#45;1a)</text>
<polygon fill="black" stroke="black" points="8,-351.5 8,-351.5 210,-351.5 210,-351.5 8,-351.5"/>
</g>
<!-- app_servers_a -->
<g id="node2" class="node">
<title>app_servers_a</title>
<path fill="white" stroke="black" d="M206,-220C206,-220 12,-220 12,-220 6,-220 0,-214 0,-208 0,-208 0,-115 0,-115 0,-109 6,-103 12,-103 12,-103 206,-103 206,-103 212,-103 218,-109 218,-115 218,-115 218,-208 218,-208 218,-214 212,-220 206,-220"/>
<text text-anchor="start" x="71" y="-203.7" font-family="Helvetica,sans-Serif" font-weight="bold" font-size="11.00">App Servers</text>
<text text-anchor="start" x="72.5" y="-187.1" font-family="Helvetica,sans-Serif" font-size="8.00" fill="#555555">10.0.0.20–21 (×2)</text>
<text text-anchor="start" x="76.5" y="-172.9" font-family="Helvetica,sans-Serif" font-size="7.00" fill="#888888">Java / Spring Boot</text>
<text text-anchor="start" x="12" y="-158.1" font-family="Helvetica,sans-Serif" font-size="8.00" fill="#888888">Instance Type</text>
<text text-anchor="start" x="75" y="-158.1" font-family="Helvetica,sans-Serif" font-size="8.00">t3.large</text>
<text text-anchor="start" x="12" y="-143.1" font-family="Helvetica,sans-Serif" font-size="8.00" fill="#888888">Count</text>
<text text-anchor="start" x="75" y="-143.1" font-family="Helvetica,sans-Serif" font-size="8.00">2</text>
<text text-anchor="start" x="12" y="-128.1" font-family="Helvetica,sans-Serif" font-size="8.00" fill="#888888">VPC</text>
<text text-anchor="start" x="75" y="-128.1" font-family="Helvetica,sans-Serif" font-size="8.00">VPC&#45;A</text>
<text text-anchor="start" x="12" y="-113.1" font-family="Helvetica,sans-Serif" font-size="8.00" fill="#888888">Subnet</text>
<text text-anchor="start" x="75" y="-113.1" font-family="Helvetica,sans-Serif" font-size="8.00">Subnet 10.0.0.0/24 (us&#45;east&#45;1a)</text>
<polygon fill="black" stroke="black" points="8,-167.5 8,-167.5 210,-167.5 210,-167.5 8,-167.5"/>
</g>
<!-- web_servers_a&#45;&gt;app_servers_a -->
<g id="edge3" class="edge">
<title>web_servers_a&#45;&gt;app_servers_a</title>
<path fill="none" stroke="black" d="M109,-286.91C109,-268.9 109,-248.86 109,-230.22"/>
<polygon fill="black" stroke="black" points="112.5,-230.02 109,-220.02 105.5,-230.02 112.5,-230.02"/>
<text text-anchor="middle" x="131" y="-251.6" font-family="Helvetica,sans-Serif" font-size="8.00" fill="#555555">HTTP/gRPC</text>
</g>
<!-- database_primary -->
<g id="node6" class="node">
<title>database_primary</title>
<ellipse fill="black" stroke="black" cx="239" cy="-18" rx="61.62" ry="18"/>
<text text-anchor="middle" x="239" y="-15.5" font-family="Helvetica,sans-Serif" font-size="10.00">database_primary</text>
</g>
<!-- app_servers_a&#45;&gt;database_primary -->
<g id="edge4" class="edge">
<title>app_servers_a&#45;&gt;database_primary</title>
<path fill="none" stroke="black" d="M161.88,-102.95C181.09,-82.04 201.76,-59.53 216.87,-43.09"/>
<polygon fill="black" stroke="black" points="219.61,-45.28 223.8,-35.54 214.46,-40.54 219.61,-45.28"/>
<text text-anchor="middle" x="201" y="-67.6" font-family="Helvetica,sans-Serif" font-size="8.00" fill="#555555">SQL</text>
</g>
<!-- redis_a -->
<g id="node7" class="node">
<title>redis_a</title>
<ellipse fill="black" stroke="black" cx="104" cy="-18" rx="30.72" ry="18"/>
<text text-anchor="middle" x="104" y="-15.5" font-family="Helvetica,sans-Serif" font-size="10.00">redis_a</text>
</g>
<!-- app_servers_a&#45;&gt;redis_a -->
<g id="edge5" class="edge">
<title>app_servers_a&#45;&gt;redis_a</title>
<path fill="none" stroke="black" d="M106.97,-102.95C106.28,-83.43 105.54,-62.52 104.97,-46.45"/>
<polygon fill="black" stroke="black" points="108.46,-46.04 104.61,-36.17 101.46,-46.29 108.46,-46.04"/>
<text text-anchor="middle" x="125" y="-67.6" font-family="Helvetica,sans-Serif" font-size="8.00" fill="#555555">cache r/w</text>
</g>
<!-- web_servers_b -->
<g id="node3" class="node">
<title>web_servers_b</title>
<path fill="white" stroke="black" d="M467,-404C467,-404 273,-404 273,-404 267,-404 261,-398 261,-392 261,-392 261,-299 261,-299 261,-293 267,-287 273,-287 273,-287 467,-287 467,-287 473,-287 479,-293 479,-299 479,-299 479,-392 479,-392 479,-398 473,-404 467,-404"/>
<text text-anchor="start" x="330.5" y="-387.7" font-family="Helvetica,sans-Serif" font-weight="bold" font-size="11.00">Web Servers</text>
<text text-anchor="start" x="333.5" y="-371.1" font-family="Helvetica,sans-Serif" font-size="8.00" fill="#555555">10.0.1.10–12 (×3)</text>
<text text-anchor="start" x="341" y="-356.9" font-family="Helvetica,sans-Serif" font-size="7.00" fill="#888888">nginx + node.js</text>
<text text-anchor="start" x="273" y="-342.1" font-family="Helvetica,sans-Serif" font-size="8.00" fill="#888888">Instance Type</text>
<text text-anchor="start" x="336" y="-342.1" font-family="Helvetica,sans-Serif" font-size="8.00">t3.medium</text>
<text text-anchor="start" x="273" y="-327.1" font-family="Helvetica,sans-Serif" font-size="8.00" fill="#888888">Count</text>
<text text-anchor="start" x="336" y="-327.1" font-family="Helvetica,sans-Serif" font-size="8.00">3</text>
<text text-anchor="start" x="273" y="-312.1" font-family="Helvetica,sans-Serif" font-size="8.00" fill="#888888">VPC</text>
<text text-anchor="start" x="336" y="-312.1" font-family="Helvetica,sans-Serif" font-size="8.00">VPC&#45;A</text>
<text text-anchor="start" x="273" y="-297.1" font-family="Helvetica,sans-Serif" font-size="8.00" fill="#888888">Subnet</text>
<text text-anchor="start" x="336" y="-297.1" font-family="Helvetica,sans-Serif" font-size="8.00">Subnet 10.0.1.0/24 (us&#45;east&#45;1b)</text>
<polygon fill="black" stroke="black" points="269,-351.5 269,-351.5 471,-351.5 471,-351.5 269,-351.5"/>
</g>
<!-- app_servers_b -->
<g id="node4" class="node">
<title>app_servers_b</title>
<path fill="white" stroke="black" d="M467,-220C467,-220 273,-220 273,-220 267,-220 261,-214 261,-208 261,-208 261,-115 261,-115 261,-109 267,-103 273,-103 273,-103 467,-103 467,-103 473,-103 479,-109 479,-115 479,-115 479,-208 479,-208 479,-214 473,-220 467,-220"/>
<text text-anchor="start" x="332" y="-203.7" font-family="Helvetica,sans-Serif" font-weight="bold" font-size="11.00">App Servers</text>
<text text-anchor="start" x="333.5" y="-187.1" font-family="Helvetica,sans-Serif" font-size="8.00" fill="#555555">10.0.1.20–21 (×2)</text>
<text text-anchor="start" x="337.5" y="-172.9" font-family="Helvetica,sans-Serif" font-size="7.00" fill="#888888">Java / Spring Boot</text>
<text text-anchor="start" x="273" y="-158.1" font-family="Helvetica,sans-Serif" font-size="8.00" fill="#888888">Instance Type</text>
<text text-anchor="start" x="336" y="-158.1" font-family="Helvetica,sans-Serif" font-size="8.00">t3.large</text>
<text text-anchor="start" x="273" y="-143.1" font-family="Helvetica,sans-Serif" font-size="8.00" fill="#888888">Count</text>
<text text-anchor="start" x="336" y="-143.1" font-family="Helvetica,sans-Serif" font-size="8.00">2</text>
<text text-anchor="start" x="273" y="-128.1" font-family="Helvetica,sans-Serif" font-size="8.00" fill="#888888">VPC</text>
<text text-anchor="start" x="336" y="-128.1" font-family="Helvetica,sans-Serif" font-size="8.00">VPC&#45;A</text>
<text text-anchor="start" x="273" y="-113.1" font-family="Helvetica,sans-Serif" font-size="8.00" fill="#888888">Subnet</text>
<text text-anchor="start" x="336" y="-113.1" font-family="Helvetica,sans-Serif" font-size="8.00">Subnet 10.0.1.0/24 (us&#45;east&#45;1b)</text>
<polygon fill="black" stroke="black" points="269,-167.5 269,-167.5 471,-167.5 471,-167.5 269,-167.5"/>
</g>
<!-- web_servers_b&#45;&gt;app_servers_b -->
<g id="edge6" class="edge">
<title>web_servers_b&#45;&gt;app_servers_b</title>
<path fill="none" stroke="black" d="M370,-286.91C370,-268.9 370,-248.86 370,-230.22"/>
<polygon fill="black" stroke="black" points="373.5,-230.02 370,-220.02 366.5,-230.02 373.5,-230.02"/>
<text text-anchor="middle" x="392" y="-251.6" font-family="Helvetica,sans-Serif" font-size="8.00" fill="#555555">HTTP/gRPC</text>
</g>
<!-- app_servers_b&#45;&gt;database_primary -->
<g id="edge7" class="edge">
<title>app_servers_b&#45;&gt;database_primary</title>
<path fill="none" stroke="black" d="M316.72,-102.95C297.36,-82.04 276.52,-59.53 261.31,-43.09"/>
<polygon fill="black" stroke="black" points="263.68,-40.5 254.32,-35.54 258.54,-45.26 263.68,-40.5"/>
<text text-anchor="middle" x="296" y="-67.6" font-family="Helvetica,sans-Serif" font-size="8.00" fill="#555555">SQL</text>
</g>
<!-- redis_b -->
<g id="node8" class="node">
<title>redis_b</title>
<ellipse fill="black" stroke="black" cx="374" cy="-18" rx="30.72" ry="18"/>
<text text-anchor="middle" x="374" y="-15.5" font-family="Helvetica,sans-Serif" font-size="10.00">redis_b</text>
</g>
<!-- app_servers_b&#45;&gt;redis_b -->
<g id="edge8" class="edge">
<title>app_servers_b&#45;&gt;redis_b</title>
<path fill="none" stroke="black" d="M371.63,-102.95C372.18,-83.43 372.77,-62.52 373.22,-46.45"/>
<polygon fill="black" stroke="black" points="376.73,-46.27 373.51,-36.17 369.73,-46.07 376.73,-46.27"/>
<text text-anchor="middle" x="392" y="-67.6" font-family="Helvetica,sans-Serif" font-size="8.00" fill="#555555">cache r/w</text>
</g>
<!-- elb -->
<g id="node5" class="node">
<title>elb</title>
<ellipse fill="black" stroke="black" cx="239" cy="-481" rx="27" ry="18"/>
<text text-anchor="middle" x="239" y="-478.5" font-family="Helvetica,sans-Serif" font-size="10.00">elb</text>
</g>
<!-- elb&#45;&gt;web_servers_a -->
<g id="edge1" class="edge">
<title>elb&#45;&gt;web_servers_a</title>
<path fill="none" stroke="black" d="M224.84,-465.46C212,-452.28 192.14,-431.88 172.46,-411.67"/>
<polygon fill="black" stroke="black" points="174.71,-408.97 165.23,-404.24 169.7,-413.85 174.71,-408.97"/>
</g>
<!-- elb&#45;&gt;web_servers_b -->
<g id="edge2" class="edge">
<title>elb&#45;&gt;web_servers_b</title>
<path fill="none" stroke="black" d="M253.27,-465.46C266.26,-452.22 286.4,-431.7 306.31,-411.4"/>
<polygon fill="black" stroke="black" points="308.83,-413.83 313.34,-404.24 303.83,-408.93 308.83,-413.83"/>
</g>
</g>
</svg>
