<?xml version="1.0" encoding="UTF-8" standalone="no"?>
<!DOCTYPE svg PUBLIC "-//W3C//DTD SVG 1.1//EN"
 "http://www.w3.org/Graphics/SVG/1.1/DTD/svg11.dtd">
<!-- Generated by graphviz version 14.1.2 (20260124.0452)
 -->
<!-- Title: EC2Architecture Pages: 1 -->
<svg width="501pt" height="602pt"
 viewBox="0.00 0.00 501.00 602.00" xmlns="http://www.w3.org/2000/svg" xmlns:xlink="http://www.w3.org/1999/xlink">
<g id="graph0" class="graph" transform="scale(1 1) rotate(0) translate(36 566)">
<title>EC2Architecture</title>
<polygon fill="white" stroke="none" points="-36,36 -36,-566 464.63,-566 464.63,36 -36,36"/>
<text xml:space="preserve" text-anchor="start" x="131.44" y="-511.8" font-family="Helvetica,sans-Serif" font-weight="bold" font-size="14.00">EC2 Compute Architecture</text>
<text xml:space="preserve" text-anchor="start" x="114.01" y="-492.8" font-family="Helvetica,sans-Serif" font-size="9.00" fill="#888888">Instance fleets, types, placement, and connectivity</text>
<!-- web_servers_a -->
<g id="node1" class="node">
<title>web_servers_a</title>
<path fill="white" stroke="black" d="M180.63,-388C180.63,-388 12,-388 12,-388 6,-388 0,-382 0,-376 0,-376 0,-290 0,-290 0,-284 6,-278 12,-278 12,-278 180.63,-278 180.63,-278 186.63,-278 192.63,-284 192.63,-290 192.63,-290 192.63,-376 192.63,-376 192.63,-382 186.63,-388 180.63,-388"/>
<text xml:space="preserve" text-anchor="start" x="64.63" y="-372.2" font-family="Helvetica,sans-Serif" font-weight="bold" font-size="11.00">Web Servers</text>
<text xml:space="preserve" text-anchor="start" x="64.62" y="-356.6" font-family="Helvetica,sans-Serif" font-size="8.00" fill="#555555">10.0.0.10–12 (×3)</text>
<text xml:space="preserve" text-anchor="start" x="72.67" y="-343.4" font-family="Helvetica,sans-Serif" font-size="7.00" fill="#888888">nginx + node.js</text>
<text xml:space="preserve" text-anchor="start" x="12" y="-329.6" font-family="Helvetica,sans-Serif" font-size="8.00" fill="#888888">Instance Type</text>
<text xml:space="preserve" text-anchor="start" x="67.67" y="-329.6" font-family="Helvetica,sans-Serif" font-size="8.00">t3.medium</text>
<text xml:space="preserve" text-anchor="start" x="12" y="-315.6" font-family="Helvetica,sans-Serif" font-size="8.00" fill="#888888">Count</text>
<text xml:space="preserve" text-anchor="start" x="67.67" y="-315.6" font-family="Helvetica,sans-Serif" font-size="8.00">3</text>
<text xml:space="preserve" text-anchor="start" x="12" y="-301.6" font-family="Helvetica,sans-Serif" font-size="8.00" fill="#888888">VPC</text>
<text xml:space="preserve" text-anchor="start" x="67.67" y="-301.6" font-family="Helvetica,sans-Serif" font-size="8.00">VPC&#45;A</text>
<text xml:space="preserve" text-anchor="start" x="12" y="-287.6" font-family="Helvetica,sans-Serif" font-size="8.00" fill="#888888">Subnet</text>
<text xml:space="preserve" text-anchor="start" x="67.67" y="-287.6" font-family="Helvetica,sans-Serif" font-size="8.00">Subnet 10.0.0.0/24 (us&#45;east&#45;1a)</text>
<polygon fill="black" stroke="black" points="8,-339 8,-339 184.63,-339 184.63,-339 8,-339"/>
</g>
<!-- app_servers_a -->
<g id="node2" class="node">
<title>app_servers_a</title>
<path fill="white" stroke="black" d="M180.63,-212C180.63,-212 12,-212 12,-212 6,-212 0,-206 0,-200 0,-200 0,-114 0,-114 0,-108 6,-102 12,-102 12,-102 180.63,-102 180.63,-102 186.63,-102 192.63,-108 192.63,-114 192.63,-114 192.63,-200 192.63,-200 192.63,-206 186.63,-212 180.63,-212"/>
<text xml:space="preserve" text-anchor="start" x="66.05" y="-196.2" font-family="Helvetica,sans-Serif" font-weight="bold" font-size="11.00">App Servers</text>
<text xml:space="preserve" text-anchor="start" x="64.62" y="-180.6" font-family="Helvetica,sans-Serif" font-size="8.00" fill="#555555">10.0.0.20–21 (×2)</text>
<text xml:space="preserve" text-anchor="start" x="67.72" y="-167.4" font-family="Helvetica,sans-Serif" font-size="7.00" fill="#888888">Java / Spring Boot</text>
<text xml:space="preserve" text-anchor="start" x="12" y="-153.6" font-family="Helvetica,sans-Serif" font-size="8.00" fill="#888888">Instance Type</text>
<text xml:space="preserve" text-anchor="start" x="67.67" y="-153.6" font-family="Helvetica,sans-Serif" font-size="8.00">t3.large</text>
<text xml:space="preserve" text-anchor="start" x="12" y="-139.6" font-family="Helvetica,sans-Serif" font-size="8.00" fill="#888888">Count</text>
<text xml:space="preserve" text-anchor="start" x="67.67" y="-139.6" font-family="Helvetica,sans-Serif" font-size="8.00">2</text>
<text xml:space="preserve" text-anchor="start" x="12" y="-125.6" font-family="Helvetica,sans-Serif" font-size="8.00" fill="#888888">VPC</text>
<text xml:space="preserve" text-anchor="start" x="67.67" y="-125.6" font-family="Helvetica,sans-Serif" font-size="8.00">VPC&#45;A</text>
<text xml:space="preserve" text-anchor="start" x="12" y="-111.6" font-family="Helvetica,sans-Serif" font-size="8.00" fill="#888888">Subnet</text>
<text xml:space="preserve" text-anchor="start" x="67.67" y="-111.6" font-family="Helvetica,sans-Serif" font-size="8.00">Subnet 10.0.0.0/24 (us&#45;east&#45;1a)</text>
<polygon fill="black" stroke="black" points="8,-163 8,-163 184.63,-163 184.63,-163 8,-163"/>
</g>
<!-- web_servers_a&#45;&gt;app_servers_a -->
<g id="edge3" class="edge">
<title>web_servers_a&#45;&gt;app_servers_a</title>
<path fill="none" stroke="black" d="M96.32,-277.9C96.32,-260.8 96.32,-241.7 96.32,-223.87"/>
<polygon fill="black" stroke="black" points="99.82,-223.88 96.32,-213.88 92.82,-223.88 99.82,-223.88"/>
<text xml:space="preserve" text-anchor="middle" x="118.54" y="-242.6" font-family="Helvetica,sans-Serif" font-size="8.00" fill="#555555">HTTP/gRPC</text>
</g>
<!-- database_primary -->
<g id="node6" class="node">
<title>database_primary</title>
<ellipse fill="black" stroke="black" cx="214.32" cy="-18" rx="55.45" ry="18"/>
<text xml:space="preserve" text-anchor="middle" x="214.32" y="-15" font-family="Helvetica,sans-Serif" font-size="10.00">database_primary</text>
</g>
<!-- app_servers_a&#45;&gt;database_primary -->
<g id="edge4" class="edge">
<title>app_servers_a&#45;&gt;database_primary</title>
<path fill="none" stroke="black" d="M142.95,-101.85C160.13,-81.91 178.77,-60.27 192.69,-44.11"/>
<polygon fill="black" stroke="black" points="195.04,-46.75 198.91,-36.89 189.73,-42.18 195.04,-46.75"/>
<text xml:space="preserve" text-anchor="middle" x="180.78" y="-66.6" font-family="Helvetica,sans-Serif" font-size="8.00" fill="#555555">SQL</text>
</g>
<!-- redis_a -->
<g id="node7" class="node">
<title>redis_a</title>
<ellipse fill="black" stroke="black" cx="87.32" cy="-18" rx="28.17" ry="18"/>
<text xml:space="preserve" text-anchor="middle" x="87.32" y="-15" font-family="Helvetica,sans-Serif" font-size="10.00">redis_a</text>
</g>
<!-- app_servers_a&#45;&gt;redis_a -->
<g id="edge5" class="edge">
<title>app_servers_a&#45;&gt;redis_a</title>
<path fill="none" stroke="black" d="M92.76,-101.85C91.54,-83.26 90.22,-63.19 89.19,-47.46"/>
<polygon fill="black" stroke="black" points="92.7,-47.63 88.56,-37.88 85.72,-48.09 92.7,-47.63"/>
<text xml:space="preserve" text-anchor="middle" x="107.86" y="-66.6" font-family="Helvetica,sans-Serif" font-size="8.00" fill="#555555">cache r/w</text>
</g>
<!-- web_servers_b -->
<g id="node3" class="node">
<title>web_servers_b</title>
<path fill="white" stroke="black" d="M416.63,-388C416.63,-388 248,-388 248,-388 242,-388 236,-382 236,-376 236,-376 236,-290 236,-290 236,-284 242,-278 248,-278 248,-278 416.63,-278 416.63,-278 422.63,-278 428.63,-284 428.63,-290 428.63,-290 428.63,-376 428.63,-376 428.63,-382 422.63,-388 416.63,-388"/>
<text xml:space="preserve" text-anchor="start" x="300.63" y="-372.2" font-family="Helvetica,sans-Serif" font-weight="bold" font-size="11.00">Web Servers</text>
<text xml:space="preserve" text-anchor="start" x="300.62" y="-356.6" font-family="Helvetica,sans-Serif" font-size="8.00" fill="#555555">10.0.1.10–12 (×3)</text>
<text xml:space="preserve" text-anchor="start" x="308.67" y="-343.4" font-family="Helvetica,sans-Serif" font-size="7.00" fill="#888888">nginx + node.js</text>
<text xml:space="preserve" text-anchor="start" x="248" y="-329.6" font-family="Helvetica,sans-Serif" font-size="8.00" fill="#888888">Instance Type</text>
<text xml:space="preserve" text-anchor="start" x="303.67" y="-329.6" font-family="Helvetica,sans-Serif" font-size="8.00">t3.medium</text>
<text xml:space="preserve" text-anchor="start" x="248" y="-315.6" font-family="Helvetica,sans-Serif" font-size="8.00" fill="#888888">Count</text>
<text xml:space="preserve" text-anchor="start" x="303.67" y="-315.6" font-family="Helvetica,sans-Serif" font-size="8.00">3</text>
<text xml:space="preserve" text-anchor="start" x="248" y="-301.6" font-family="Helvetica,sans-Serif" font-size="8.00" fill="#888888">VPC</text>
<text xml:space="preserve" text-anchor="start" x="303.67" y="-301.6" font-family="Helvetica,sans-Serif" font-size="8.00">VPC&#45;A</text>
<text xml:space="preserve" text-anchor="start" x="248" y="-287.6" font-family="Helvetica,sans-Serif" font-size="8.00" fill="#888888">Subnet</text>
<text xml:space="preserve" text-anchor="start" x="303.67" y="-287.6" font-family="Helvetica,sans-Serif" font-size="8.00">Subnet 10.0.1.0/24 (us&#45;east&#45;1b)</text>
<polygon fill="black" stroke="black" points="244,-339 244,-339 420.63,-339 420.63,-339 244,-339"/>
</g>
<!-- app_servers_b -->
<g id="node4" class="node">
<title>app_servers_b</title>
<path fill="white" stroke="black" d="M416.63,-212C416.63,-212 248,-212 248,-212 242,-212 236,-206 236,-200 236,-200 236,-114 236,-114 236,-108 242,-102 248,-102 248,-102 416.63,-102 416.63,-102 422.63,-102 428.63,-108 428.63,-114 428.63,-114 428.63,-200 428.63,-200 428.63,-206 422.63,-212 416.63,-212"/>
<text xml:space="preserve" text-anchor="start" x="302.05" y="-196.2" font-family="Helvetica,sans-Serif" font-weight="bold" font-size="11.00">App Servers</text>
<text xml:space="preserve" text-anchor="start" x="300.62" y="-180.6" font-family="Helvetica,sans-Serif" font-size="8.00" fill="#555555">10.0.1.20–21 (×2)</text>
<text xml:space="preserve" text-anchor="start" x="303.72" y="-167.4" font-family="Helvetica,sans-Serif" font-size="7.00" fill="#888888">Java / Spring Boot</text>
<text xml:space="preserve" text-anchor="start" x="248" y="-153.6" font-family="Helvetica,sans-Serif" font-size="8.00" fill="#888888">Instance Type</text>
<text xml:space="preserve" text-anchor="start" x="303.67" y="-153.6" font-family="Helvetica,sans-Serif" font-size="8.00">t3.large</text>
<text xml:space="preserve" text-anchor="start" x="248" y="-139.6" font-family="Helvetica,sans-Serif" font-size="8.00" fill="#888888">Count</text>
<text xml:space="preserve" text-anchor="start" x="303.67" y="-139.6" font-family="Helvetica,sans-Serif" font-size="8.00">2</text>
<text xml:space="preserve" text-anchor="start" x="248" y="-125.6" font-family="Helvetica,sans-Serif" font-size="8.00" fill="#888888">VPC</text>
<text xml:space="preserve" text-anchor="start" x="303.67" y="-125.6" font-family="Helvetica,sans-Serif" font-size="8.00">VPC&#45;A</text>
<text xml:space="preserve" text-anchor="start" x="248" y="-111.6" font-family="Helvetica,sans-Serif" font-size="8.00" fill="#888888">Subnet</text>
<text xml:space="preserve" text-anchor="start" x="303.67" y="-111.6" font-family="Helvetica,sans-Serif" font-size="8.00">Subnet 10.0.1.0/24 (us&#45;east&#45;1b)</text>
<polygon fill="black" stroke="black" points="244,-163 244,-163 420.63,-163 420.63,-163 244,-163"/>
</g>
<!-- web_servers_b&#45;&gt;app_servers_b -->
<g id="edge6" class="edge">
<title>web_servers_b&#45;&gt;app_servers_b</title>
<path fill="none" stroke="black" d="M332.32,-277.9C332.32,-260.8 332.32,-241.7 332.32,-223.87"/>
<polygon fill="black" stroke="black" points="335.82,-223.88 332.32,-213.88 328.82,-223.88 335.82,-223.88"/>
<text xml:space="preserve" text-anchor="middle" x="354.54" y="-242.6" font-family="Helvetica,sans-Serif" font-size="8.00" fill="#555555">HTTP/gRPC</text>
</g>
<!-- app_servers_b&#45;&gt;database_primary -->
<g id="edge7" class="edge">
<title>app_servers_b&#45;&gt;database_primary</title>
<path fill="none" stroke="black" d="M285.68,-101.85C268.5,-81.91 249.86,-60.27 235.94,-44.11"/>
<polygon fill="black" stroke="black" points="238.9,-42.18 229.72,-36.89 233.6,-46.75 238.9,-42.18"/>
<text xml:space="preserve" text-anchor="middle" x="267.28" y="-66.6" font-family="Helvetica,sans-Serif" font-size="8.00" fill="#555555">SQL</text>
</g>
<!-- redis_b -->
<g id="node8" class="node">
<title>redis_b</title>
<ellipse fill="black" stroke="black" cx="341.32" cy="-18" rx="28.17" ry="18"/>
<text xml:space="preserve" text-anchor="middle" x="341.32" y="-15" font-family="Helvetica,sans-Serif" font-size="10.00">redis_b</text>
</g>
<!-- app_servers_b&#45;&gt;redis_b -->
<g id="edge8" class="edge">
<title>app_servers_b&#45;&gt;redis_b</title>
<path fill="none" stroke="black" d="M335.87,-101.85C337.1,-83.26 338.41,-63.19 339.45,-47.46"/>
<polygon fill="black" stroke="black" points="342.91,-48.09 340.08,-37.88 335.93,-47.63 342.91,-48.09"/>
<text xml:space="preserve" text-anchor="middle" x="355.27" y="-66.6" font-family="Helvetica,sans-Serif" font-size="8.00" fill="#555555">cache r/w</text>
</g>
<!-- elb -->
<g id="node5" class="node">
<title>elb</title>
<ellipse fill="black" stroke="black" cx="213.32" cy="-465" rx="27" ry="18"/>
<text xml:space="preserve" text-anchor="middle" x="213.32" y="-462" font-family="Helvetica,sans-Serif" font-size="10.00">elb</text>
</g>
<!-- elb&#45;&gt;web_servers_a -->
<g id="edge1" class="edge">
<title>elb&#45;&gt;web_servers_a</title>
<path fill="none" stroke="black" d="M199.9,-449.09C188.18,-436.07 170.35,-416.26 152.77,-396.73"/>
<polygon fill="black" stroke="black" points="155.57,-394.61 146.28,-389.52 150.37,-399.29 155.57,-394.61"/>
</g>
<!-- elb&#45;&gt;web_servers_b -->
<g id="edge2" class="edge">
<title>elb&#45;&gt;web_servers_b</title>
<path fill="none" stroke="black" d="M226.97,-449.09C238.88,-436.07 257.01,-416.26 274.9,-396.73"/>
<polygon fill="black" stroke="black" points="277.33,-399.25 281.5,-389.51 272.17,-394.52 277.33,-399.25"/>
</g>
</g>
</svg>
