<?xml version="1.0" encoding="UTF-8" standalone="no"?>
<!DOCTYPE svg PUBLIC "-//W3C//DTD SVG 1.1//EN"
 "http://www.w3.org/Graphics/SVG/1.1/DTD/svg11.dtd">
<!-- Generated by graphviz version 2.43.0 (0)
 -->
<!-- Title: ElastiCacheArchitecture Pages: 1 -->
<svg width="523pt" height="356pt"
 viewBox="0.00 0.00 523.00 356.00" xmlns="http://www.w3.org/2000/svg" xmlns:xlink="http://www.w3.org/1999/xlink">
<g id="graph0" class="graph" transform="scale(1 1) rotate(0) translate(36 320)">
<title>ElastiCacheArchitecture</title>
<polygon fill="white" stroke="transparent" points="-36,36 -36,-320 487,-320 487,36 -36,36"/>
<text text-anchor="start" x="129" y="-265.3" font-family="Helvetica,sans-Serif" font-weight="bold" font-size="14.00">ElastiCache Architecture</text>
<text text-anchor="start" x="105.5" y="-245.3" font-family="Helvetica,sans-Serif" font-size="9.00" fill="#888888">Cache clusters, engine configuration, and placement</text>
<!-- redis_a -->
<g id="node1" class="node">
<title>redis_a</title>
<path fill="white" stroke="black" d="M192,-132C192,-132 12,-132 12,-132 6,-132 0,-126 0,-120 0,-120 0,-12 0,-12 0,-6 6,0 12,0 12,0 192,0 192,0 198,0 204,-6 204,-12 204,-12 204,-120 204,-120 204,-126 198,-132 192,-132"/>
<text text-anchor="start" x="60.5" y="-116.2" font-family="Helvetica,sans-Serif" font-weight="bold" font-size="11.00">Valkey Cache</text>
<text text-anchor="start" x="80" y="-99.6" font-family="Helvetica,sans-Serif" font-size="8.00" fill="#555555">10.0.0.100</text>
<text text-anchor="start" x="70" y="-85.4" font-family="Helvetica,sans-Serif" font-size="7.00" fill="#888888">ElastiCache node</text>
<text text-anchor="start" x="12" y="-70.6" font-family="Helvetica,sans-Serif" font-size="8.00" fill="#888888">Engine</text>
<text text-anchor="start" x="61" y="-70.6" font-family="Helvetica,sans-Serif" font-size="8.00">valkey 7.2</text>
<text text-anchor="start" x="12" y="-55.6" font-family="Helvetica,sans-Serif" font-size="8.00" fill="#888888">Node Type</text>
<text text-anchor="start" x="61" y="-55.6" font-family="Helvetica,sans-Serif" font-size="8.00">cache.t3.micro</text>
<text text-anchor="start" x="12" y="-40.6" font-family="Helvetica,sans-Serif" font-size="8.00" fill="#888888">Nodes</text>
<text text-anchor="start" x="61" y="-40.6" font-family="Helvetica,sans-Serif" font-size="8.00">1</text>
<text text-anchor="start" x="12" y="-25.6" font-family="Helvetica,sans-Serif" font-size="8.00" fill="#888888">VPC</text>
<text text-anchor="start" x="61" y="-25.6" font-family="Helvetica,sans-Serif" font-size="8.00">VPC&#45;A</text>
<text text-anchor="start" x="12" y="-10.6" font-family="Helvetica,sans-Serif" font-size="8.00" fill="#888888">Subnet</text>
<text text-anchor="start" x="61" y="-10.6" font-family="Helvetica,sans-Serif" font-size="8.00">Subnet 10.0.0.0/24 (us&#45;east&#45;1a)</text>
<polygon fill="black" stroke="black" points="8,-80 8,-80 196,-80 196,-80 8,-80"/>
</g>
<!-- redis_b -->
<g id="node2" class="node">
<title>redis_b</title>
<path fill="white" stroke="black" d="M439,-132C439,-132 259,-132 259,-132 253,-132 247,-126 247,-120 247,-120 247,-12 247,-12 247,-6 253,0 259,0 259,0 439,0 439,0 445,0 451,-6 451,-12 451,-12 451,-120 451,-120 451,-126 445,-132 439,-132"/>
<text text-anchor="start" x="307.5" y="-116.2" font-family="Helvetica,sans-Serif" font-weight="bold" font-size="11.00">Valkey Cache</text>
<text text-anchor="start" x="327" y="-99.6" font-family="Helvetica,sans-Serif" font-size="8.00" fill="#555555">10.0.1.100</text>
<text text-anchor="start" x="317" y="-85.4" font-family="Helvetica,sans-Serif" font-size="7.00" fill="#888888">ElastiCache node</text>
<text text-anchor="start" x="259" y="-70.6" font-family="Helvetica,sans-Serif" font-size="8.00" fill="#888888">Engine</text>
<text text-anchor="start" x="308" y="-70.6" font-family="Helvetica,sans-Serif" font-size="8.00">valkey 7.2</text>
<text text-anchor="start" x="259" y="-55.6" font-family="Helvetica,sans-Serif" font-size="8.00" fill="#888888">Node Type</text>
<text text-anchor="start" x="308" y="-55.6" font-family="Helvetica,sans-Serif" font-size="8.00">cache.t3.micro</text>
<text text-anchor="start" x="259" y="-40.6" font-family="Helvetica,sans-Serif" font-size="8.00" fill="#888888">Nodes</text>
<text text-anchor="start" x="308" y="-40.6" font-family="Helvetica,sans-Serif" font-size="8.00">1</text>
<text text-anchor="start" x="259" y="-25.6" font-family="Helvetica,sans-Serif" font-size="8.00" fill="#888888">VPC</text>
<text text-anchor="start" x="308" y="-25.6" font-family="Helvetica,sans-Serif" font-size="8.00">VPC&#45;A</text>
<text text-anchor="start" x="259" y="-10.6" font-family="Helvetica,sans-Serif" font-size="8.00" fill="#888888">Subnet</text>
<text text-anchor="start" x="308" y="-10.6" font-family="Helvetica,sans-Serif" font-size="8.00">Subnet 10.0.1.0/24 (us&#45;east&#45;1b)</text>
<polygon fill="black" stroke="black" points="255,-80 255,-80 443,-80 443,-80 255,-80"/>
</g>
<!-- app_servers_a -->
<g id="node3" class="node">
<title>app_servers_a</title>
<ellipse fill="black" stroke="black" cx="102" cy="-217" rx="51.43" ry="18"/>
<text text-anchor="middle" x="102" y="-214.5" font-family="Helvetica,sans-Serif" font-size="10.00">app_servers_a</text>
</g>
<!-- app_servers_a&#45;&gt;redis_a -->
<g id="edge1" class="edge">
<title>app_servers_a&#45;&gt;redis_a</title>
<path fill="none" stroke="black" d="M102,-198.91C102,-184.72 102,-163.48 102,-142.17"/>
<polygon fill="black" stroke="black" points="105.5,-142.07 102,-132.07 98.5,-142.07 105.5,-142.07"/>
<text text-anchor="middle" x="122" y="-163.6" font-family="Helvetica,sans-Serif" font-size="8.00" fill="#555555">cache r/w</text>
</g>
<!-- app_servers_b -->
<g id="node4" class="node">
<title>app_servers_b</title>
<ellipse fill="black" stroke="black" cx="349" cy="-217" rx="51.43" ry="18"/>
<text text-anchor="middle" x="349" y="-214.5" font-family="Helvetica,sans-Serif" font-size="10.00">app_servers_b</text>
</g>
<!-- app_servers_b&#45;&gt;redis_b -->
<g id="edge2" class="edge">
<title>app_servers_b&#45;&gt;redis_b</title>
<path fill="none" stroke="black" d="M349,-198.91C349,-184.72 349,-163.48 349,-142.17"/>
<polygon fill="black" stroke="black" points="352.5,-142.07 349,-132.07 345.5,-142.07 352.5,-142.07"/>
<text text-anchor="middle" x="369" y="-163.6" font-family="Helvetica,sans-Serif" font-size="8.00" fill="#555555">cache r/w</text>
</g>
</g>
</svg>
