<?xml version="1.0" encoding="UTF-8" standalone="no"?>
<!DOCTYPE svg PUBLIC "-//W3C//DTD SVG 1.1//EN"
 "http://www.w3.org/Graphics/SVG/1.1/DTD/svg11.dtd">
<!-- Generated by graphviz version 2.43.0 (0)
 -->
<!-- Title: RDSArchitecture Pages: 1 -->
<svg width="367pt" height="512pt"
 viewBox="0.00 0.00 367.00 512.00" xmlns="http://www.w3.org/2000/svg" xmlns:xlink="http://www.w3.org/1999/xlink">
<g id="graph0" class="graph" transform="scale(1 1) rotate(0) translate(36 476)">
<title>RDSArchitecture</title>
<polygon fill="white" stroke="transparent" points="-36,36 -36,-476 331,-476 331,36 -36,36"/>
<text text-anchor="start" x="41" y="-421.3" font-family="Helvetica,sans-Serif" font-weight="bold" font-size="14.00">RDS Database Architecture</text>
<text text-anchor="start" x="12.5" y="-401.3" font-family="Helvetica,sans-Serif" font-size="9.00" fill="#888888">Instance configuration, replication, and network placement</text>
<!-- database_primary -->
<g id="node1" class="node">
<title>database_primary</title>
<path fill="white" stroke="black" d="M214,-288C214,-288 80,-288 80,-288 74,-288 68,-282 68,-276 68,-276 68,-182 68,-182 68,-176 74,-170 80,-170 80,-170 214,-170 214,-170 220,-170 226,-176 226,-182 226,-182 226,-276 226,-276 226,-282 220,-288 214,-288"/>
<text text-anchor="start" x="86.5" y="-272.2" font-family="Helvetica,sans-Serif" font-weight="bold" font-size="11.00">Database (primary)</text>
<text text-anchor="start" x="127.5" y="-255.6" font-family="Helvetica,sans-Serif" font-size="8.00" fill="#555555">10.0.0.50</text>
<text text-anchor="start" x="80" y="-240.6" font-family="Helvetica,sans-Serif" font-size="8.00" fill="#888888">Engine</text>
<text text-anchor="start" x="122" y="-240.6" font-family="Helvetica,sans-Serif" font-size="8.00">postgres</text>
<text text-anchor="start" x="80" y="-225.6" font-family="Helvetica,sans-Serif" font-size="8.00" fill="#888888">Instance</text>
<text text-anchor="start" x="122" y="-225.6" font-family="Helvetica,sans-Serif" font-size="8.00">${Token[TOKEN.127]}</text>
<text text-anchor="start" x="80" y="-210.6" font-family="Helvetica,sans-Serif" font-size="8.00" fill="#888888">Storage</text>
<text text-anchor="start" x="122" y="-210.6" font-family="Helvetica,sans-Serif" font-size="8.00">20 GB</text>
<text text-anchor="start" x="80" y="-195.6" font-family="Helvetica,sans-Serif" font-size="8.00" fill="#888888">Multi&#45;AZ</text>
<text text-anchor="start" x="122" y="-195.6" font-family="Helvetica,sans-Serif" font-size="8.00">No</text>
<text text-anchor="start" x="80" y="-180.6" font-family="Helvetica,sans-Serif" font-size="8.00" fill="#888888">VPC</text>
<text text-anchor="start" x="122" y="-180.6" font-family="Helvetica,sans-Serif" font-size="8.00">VPC&#45;A</text>
<polygon fill="black" stroke="black" points="76,-250 76,-250 218,-250 218,-250 76,-250"/>
</g>
<!-- database_standby -->
<g id="node2" class="node">
<title>database_standby</title>
<path fill="white" stroke="black" d="M214,-103C214,-103 80,-103 80,-103 74,-103 68,-97 68,-91 68,-91 68,-12 68,-12 68,-6 74,0 80,0 80,0 214,0 214,0 220,0 226,-6 226,-12 226,-12 226,-91 226,-91 226,-97 220,-103 214,-103"/>
<text text-anchor="start" x="85.5" y="-86.7" font-family="Helvetica,sans-Serif" font-weight="bold" font-size="11.00">Database (standby)</text>
<text text-anchor="start" x="127.5" y="-70.1" font-family="Helvetica,sans-Serif" font-size="8.00" fill="#555555">10.0.1.50</text>
<text text-anchor="start" x="80" y="-55.1" font-family="Helvetica,sans-Serif" font-size="8.00" fill="#888888">Engine</text>
<text text-anchor="start" x="122" y="-55.1" font-family="Helvetica,sans-Serif" font-size="8.00">PostgreSQL RDS</text>
<text text-anchor="start" x="80" y="-40.1" font-family="Helvetica,sans-Serif" font-size="8.00" fill="#888888">Instance</text>
<text text-anchor="start" x="122" y="-40.1" font-family="Helvetica,sans-Serif" font-size="8.00">${Token[TOKEN.161]}</text>
<text text-anchor="start" x="80" y="-25.1" font-family="Helvetica,sans-Serif" font-size="8.00" fill="#888888">Multi&#45;AZ</text>
<text text-anchor="start" x="122" y="-25.1" font-family="Helvetica,sans-Serif" font-size="8.00">No</text>
<text text-anchor="start" x="80" y="-10.1" font-family="Helvetica,sans-Serif" font-size="8.00" fill="#888888">VPC</text>
<text text-anchor="start" x="122" y="-10.1" font-family="Helvetica,sans-Serif" font-size="8.00">VPC&#45;A</text>
<polygon fill="black" stroke="black" points="76,-64.5 76,-64.5 218,-64.5 218,-64.5 76,-64.5"/>
</g>
<!-- database_primary&#45;&gt;database_standby -->
<g id="edge2" class="edge">
<title>database_primary&#45;&gt;database_standby</title>
<path fill="none" stroke="black" stroke-dasharray="5,2" d="M147,-169.56C147,-151.47 147,-131.51 147,-113.26"/>
<polygon fill="black" stroke="black" points="150.5,-113.04 147,-103.04 143.5,-113.04 150.5,-113.04"/>
<text text-anchor="middle" x="179.5" y="-134.6" font-family="Helvetica,sans-Serif" font-size="8.00" fill="#555555">sync replication</text>
</g>
<!-- app_servers_a -->
<g id="node3" class="node">
<title>app_servers_a</title>
<ellipse fill="black" stroke="black" cx="75" cy="-373" rx="51.43" ry="18"/>
<text text-anchor="middle" x="75" y="-370.5" font-family="Helvetica,sans-Serif" font-size="10.00">app_servers_a</text>
</g>
<!-- app_servers_a&#45;&gt;database_primary -->
<g id="edge1" class="edge">
<title>app_servers_a&#45;&gt;database_primary</title>
<path fill="none" stroke="black" d="M83.54,-355.15C90.88,-340.69 101.95,-318.84 112.81,-297.43"/>
<polygon fill="black" stroke="black" points="116.04,-298.81 117.44,-288.31 109.79,-295.64 116.04,-298.81"/>
<text text-anchor="middle" x="111" y="-319.6" font-family="Helvetica,sans-Serif" font-size="8.00" fill="#555555">SQL</text>
</g>
<!-- app_servers_b -->
<g id="node4" class="node">
<title>app_servers_b</title>
<ellipse fill="black" stroke="black" cx="220" cy="-373" rx="51.43" ry="18"/>
<text text-anchor="middle" x="220" y="-370.5" font-family="Helvetica,sans-Serif" font-size="10.00">app_servers_b</text>
</g>
<!-- app_servers_b&#45;&gt;database_primary -->
<g id="edge3" class="edge">
<title>app_servers_b&#45;&gt;database_primary</title>
<path fill="none" stroke="black" d="M211.34,-355.15C203.9,-340.69 192.67,-318.84 181.67,-297.43"/>
<polygon fill="black" stroke="black" points="184.66,-295.6 176.97,-288.31 178.43,-298.8 184.66,-295.6"/>
<text text-anchor="middle" x="202" y="-319.6" font-family="Helvetica,sans-Serif" font-size="8.00" fill="#555555">SQL</text>
</g>
</g>
</svg>
